<svg xmlns="http://www.w3.org/2000/svg" viewBox="0 0 80.4 91.51"><defs><style>.a{fill:#061221;}.b{fill:none;stroke:#259073;stroke-miterlimit:10;}.c{fill:#e6f99d;}.d{fill:#fff;}</style></defs><title>Asset 44</title><path class="a" d="M78.17,69.68a3.84,3.84,0,0,0,1.73-3V24.83a3.84,3.84,0,0,0-1.73-3L41.93.91a3.84,3.84,0,0,0-3.46,0L2.23,21.83a3.84,3.84,0,0,0-1.73,3V66.68a3.84,3.84,0,0,0,1.73,3L38.47,90.6a3.84,3.84,0,0,0,3.46,0Z"/><path class="b" d="M78.17,69.68a3.84,3.84,0,0,0,1.73-3V24.83a3.84,3.84,0,0,0-1.73-3L41.93.91a3.84,3.84,0,0,0-3.46,0L2.23,21.83a3.84,3.84,0,0,0-1.73,3V66.68a3.84,3.84,0,0,0,1.73,3L38.47,90.6a3.84,3.84,0,0,0,3.46,0Z"/><path class="c" d="M59.31,18.5,72.9,26.35a1.37,1.37,0,0,1,.58,1V47.31l1.31-.84V27.36a2.66,2.66,0,0,0-1.24-2.14L60.27,17.54Z"/><path class="c" d="M6.92,47.21V27.36a1.37,1.37,0,0,1,.58-1L20.58,18.8l-1.15-.85L6.84,25.21a2.66,2.66,0,0,0-1.24,2.14V48.15Z"/><path class="d" d="M25,16.22,39.62,7.8a1.37,1.37,0,0,1,1.16,0l14.29,8.25,1-1L41.44,6.67a2.66,2.66,0,0,0-2.47,0l-15.07,8.7Z"/><path class="d" d="M73.49,52.9V64.45a1.37,1.37,0,0,1-.58,1L59.69,73.08,60,74.44l13.59-7.85a2.66,2.66,0,0,0,1.24-2.14V52.07Z"/><path class="c" d="M55.38,75.57,40.78,84a1.37,1.37,0,0,1-1.16,0L24.16,75.07l.36,1.72L39,85.14a2.66,2.66,0,0,0,2.47,0l14.22-8.21Z"/><path class="d" d="M18.68,71.91,7.5,65.45a1.37,1.37,0,0,1-.58-1V53L5.61,54V64.45a2.66,2.66,0,0,0,1.24,2.14l12.19,7Z"/></svg>