<svg xmlns="http://www.w3.org/2000/svg" width="882.1" height="348" viewBox="0 0 882.1 348">
  <defs>
    <style>
      .a {
        fill: #3f4040;
      }

      .b {
        fill: #020202;
      }
    </style>
  </defs>
  <title>Bottom1</title>
  <path class="a" d="M3237.8,6028.2s110.1-129.8,114.8-132.2,15.1-1,19.3,1.9,16.1,17,18.2,20.8,1.7-12.3,1.7-12.3-28.7-21.9-40.7-16.6-130.6,143.3-130.6,143.3Z" transform="translate(-3220.5 -5889)"/>
  <path class="b" d="M3273.2,6020.2s76.9-102.8,81.4-107.5,12.1-13.2,18.3-4.8,6.8,12.4,8.4,12.4,10.4,1,10.4-1.9-3-9.5-3-9.5-18.9-19.5-33.5-15.9c-7.1,1.7-120.6,130.7-121.1,133.4S3273.2,6020.2,3273.2,6020.2Z" transform="translate(-3220.5 -5889)"/>
  <path class="a" d="M4085.2,6028.2s-110.1-129.8-114.8-132.2-15.1-1-19.3,1.9-16.1,17-18.2,20.8-1.7-12.3-1.7-12.3,28.7-21.9,40.7-16.6,130.6,143.3,130.6,143.3Z" transform="translate(-3220.5 -5889)"/>
  <path class="b" d="M4049.8,6020.2s-76.9-102.8-81.4-107.5-12.1-13.2-18.3-4.8-6.8,12.4-8.4,12.4-10.4,1-10.4-1.9,3-9.5,3-9.5,18.9-19.5,33.5-15.9c7.1,1.7,120.6,130.7,121.1,133.4S4049.8,6020.2,4049.8,6020.2Z" transform="translate(-3220.5 -5889)"/>
  <path class="a" d="M4094.5,6021.3s-142.2-13.9-181.5-13.9c-75.3,0-140.1,14.6-202.7,36.1-5.8,2-11.3,3.6-16.5,4.9l-2.6.3-4.2,1.2a115.4,115.4,0,0,1-51.1,0l-4.2-1.2-2.6-.3c-5.2-1.3-10.7-2.9-16.5-4.9-62.6-21.6-127.3-36.1-202.7-36.1-39.3,0-181.5,13.9-181.5,13.9l-8,11.7s8.9,16.6,43.8,7.1c122.5-33.3,292.8-1.9,304.8,1.9s64.8,19.5,71.6,23.7c2.3,1.5,10.8.9,20.9-.6,10.1,1.4,18.5,2,20.9.6,6.8-4.3,59.5-19.9,71.6-23.7s182.2-35.3,304.8-1.9c35,9.5,43.8-7.1,43.8-7.1Z" transform="translate(-3220.5 -5889)"/>
  <path class="b" d="M4085.4,6031.4c-35.2-4.1-128-14.5-173.9-14.5-104.4,0-160.8,29.5-232.8,43.7a111.1,111.1,0,0,1-37.6,0c-72-14.3-128.4-43.7-232.8-43.7-45.9,0-138.7,10.4-173.9,14.5l-14,1.7v45.6s18.8-5.7,28.2-1,25.1,83.7,36.5,102.7,44.7,50.8,116.7,55.6,153.6-8,178.7-38.4c23.5-28.6,50.9-82.4,54.3-89.4l.2-.4a6.2,6.2,0,0,0,1.3-1.7c5.8-10,14.7-15.4,23.5-15.6s17.7,5.6,23.5,15.6a6.2,6.2,0,0,0,1.3,1.7l.2.4c3.4,7,30.7,60.8,54.3,89.4,25.1,30.4,106.7,43.2,178.7,38.4s106-37.8,116.7-55.6,27.1-97.9,36.5-102.7,28.2,1,28.2,1v-45.6ZM3569.5,6186c-59.1,66.6-234.4,41.3-260.3-3.8-7.7-13.3-36.9-56.4-28.5-102.7,1.9-10.5,13.9-36.8,40.4-42.5s169-24.1,252.6,21.2C3588.3,6066.2,3630.7,6116.9,3569.5,6186Zm439.4-3.8c-25.9,45.1-201.2,70.4-260.3,3.8-61.2-69.1-18.8-119.8-4.2-127.7,83.6-45.3,226.2-26.9,252.6-21.2s38.5,32,40.4,42.5C4045.7,6125.8,4016.5,6168.9,4008.8,6182.2Z" transform="translate(-3220.5 -5889)"/>
</svg>
