<svg xmlns="http://www.w3.org/2000/svg" width="882.5" height="510.4" viewBox="0 0 882.5 510.4">
  <defs>
    <style>
      .a {
        fill: #2b2b2b;
      }

      .b {
        fill: #2d2d2d;
      }

      .c {
        fill: #383838;
      }

      .d {
        fill: #161616;
      }
    </style>
  </defs>
  <title>Bottom2</title>
  <path d="M5561.6,6050.2l-111.6-280c-6.8-17.8-34.9-33.9-53.7-35.9-6.8-.8-2.3,18.2,1.1,18.2s23.5,8.3,26.9,15.5,100.6,287.5,100.6,287.5Z" transform="translate(-4679.5 -5734.3)"/>
  <path class="a" d="M5392.7,5739.3c10.6,1.1,34.3,13.6,44.5,26.5s113.5,283.1,113.5,283.1l10.5,1.6s-76.7-209.5-113.6-284.6c-3.6-7.3-13-15.1-23.7-21.6a73.8,73.8,0,0,0-26.5-9.7C5392.3,5733.1,5392.7,5739.3,5392.7,5739.3Z" transform="translate(-4679.5 -5734.3)"/>
  <path d="M4681,6050.2l111.6-280c6.8-17.8,34.9-33.9,53.7-35.9,6.8-.8,2.3,18.2-1.1,18.2s-23.5,8.3-26.9,15.5-100.6,287.5-100.6,287.5Z" transform="translate(-4679.5 -5734.3)"/>
  <path class="a" d="M4849.9,5739.3c-10.6,1.1-34.3,13.6-44.5,26.5s-113.5,283.1-113.5,283.1l-10.5,1.6s76.7-209.5,113.6-284.6c3.6-7.3,13-15.1,23.7-21.6a73.8,73.8,0,0,1,26.5-9.7C4850.2,5733.1,4849.9,5739.3,4849.9,5739.3Z" transform="translate(-4679.5 -5734.3)"/>
  <path class="b" d="M5555.5,6043.6c-3.8,0-101.2-19.6-196.2-14.7-75,3.9-156.5,30.9-177.1,37.5s-50,8.6-67.7,8.7-39.2-3.2-55.3-8.3c-20.5-6.5-102-33.6-177.1-37.5-95-4.9-193.1,12.7-196.9,12.7l-5.4,8.6s170.6-6.8,229.2,1.8c84,12.3,188.7,40.5,212.4,40.5,39.7-.1,79.4-10.7,84.9-12.8,10.1-3.9,73.6-22.4,132.7-29.4,52.4-6.2,223,0,223,0Z" transform="translate(-4679.5 -5734.3)"/>
  <path class="c" d="M4742.5,6087.3c1.4,19.3-1.9,97.4,87.5,130,43.4,15.8,131.8,18,176.6-1.6,42.5-18.6,55.6-69.5,56-82,.9-26.2-13.2-38.2-13.2-38.2s23,28,18,53.9c-6.1,31.7-36.7,65.1-60.4,74.9-54.3,22.3-136.5,13.3-170.5,2.3-32.2-10.5-74.3-40.7-90.2-76.5C4734.7,6124,4742.5,6087.3,4742.5,6087.3Z" transform="translate(-4679.5 -5734.3)"/>
  <path class="c" d="M5499.1,6088.1c-1.4,19.3,4.4,95.4-85.1,128-44.7,16.3-132.7,18-175.9-.1-39.9-16.8-55-64.8-55.5-76.8-.9-26.2,6.2-41.9,6.2-41.9s-17.5,26.2-12.5,52.1c6.1,31.7,36.7,65.1,60.4,74.9,54.3,22.3,136.5,13.3,170.5,2.3,32.2-10.5,74.3-40.7,90.2-76.5C5509.2,6124,5499.1,6088.1,5499.1,6088.1Z" transform="translate(-4679.5 -5734.3)"/>
  <path class="d" d="M5359.4,6040.6c-75,3.9-156.5,30.9-177.1,37.5-18.2,5.8-43.7,8.1-61.6,8.6s-43.4-2.8-61.6-8.6c-20.5-6.5-102-33.6-177.1-37.5-95-4.9-198.8,9.6-202.6,9.6l9.1,42s10.2-1.1,15.9,2.3,11.4,13.6,13.6,17,40.9,80.8,64.7,96.5c39.7,26.1,156,64,253.1,6.8,19.3-11.4,60-77.6,63.6-84a11.2,11.2,0,0,1,1.2-1.7c5.6-5,13-7.2,20.1-7.3s14.5,2.3,20.1,7.3a11.2,11.2,0,0,1,1.2,1.7c3.5,6.4,44.3,72.6,63.6,84,97.1,57.1,213.4,19.3,253.1-6.8,23.8-15.6,62.4-93.1,64.7-96.5s7.9-13.6,13.6-17,15.9-2.3,15.9-2.3l9.1-42C5558.2,6050.2,5454.4,6035.7,5359.4,6040.6Zm-344.9,174.6c-38.3,21.6-136.1,23.1-183.5,6.2-13.5-4.8-42-21.5-54.9-34.9-18.1-18.8-27.2-46.8-28.7-50.7-8.2-22.3-4.9-42.3-3.9-45.7,2-6.5,3.5-24.3,46.8-34.1,16.5-3.7,108.1-3.7,156.1,5.6s90,21.7,109.1,44.3C5084.3,6139.8,5039.4,6201.2,5014.5,6215.2Zm481.4-79.3c-1.4,3.9-10.6,31.9-28.7,50.7-12.9,13.5-41.4,28.9-54.9,33.8-47.4,16.9-145.1,16.5-183.5-5.1-24.9-14-69.8-75.4-41.1-109.2,19.1-22.6,61.1-34.9,109.1-44.3s139.6-9.4,156.1-5.6c43.3,9.8,44.8,27.6,46.8,34.1C5500.8,6093.6,5504.1,6113.6,5495.9,6135.9Z" transform="translate(-4679.5 -5734.3)"/>
</svg>
