<svg xmlns="http://www.w3.org/2000/svg" width="891.9" height="639" viewBox="0 0 891.9 639">
  <defs>
    <style>
      .a {
        fill: #515151;
      }
    </style>
  </defs>
  <title>Bottom3</title>
  <path class="a" d="M632.5,8649.8c-2.5,10.3-15,31.6-41.1,40.5-83.4,28.4-197.8.9-224.4-7.3-14.7-4.5-47.9-23.1-58-46.1-4-9.1-6-16.1-6.6-21.6-.8,6,.8,14.9,6.6,28.2,10.1,22.9,43.3,41.6,58,46.1,26.7,8.2,141,35.7,224.4,7.3,26.1-8.9,38.5-30.2,41.1-40.5a16.1,16.1,0,0,0,.1-7.3Z" transform="translate(-235.9 -8079)"/>
  <path class="a" d="M737.5,8649.8c2.5,10.3,15,31.6,41.1,40.5,83.4,28.4,197.8.9,224.4-7.3,14.7-4.5,47.9-23.1,58-46.1,4-9.1,6-16.1,6.6-21.6.8,6-.8,14.9-6.6,28.2-10.1,22.9-43.3,41.6-58,46.1-26.7,8.2-141,35.7-224.4,7.3-26.1-8.9-38.5-30.2-41.1-40.5a16.1,16.1,0,0,1-.1-7.3Z" transform="translate(-235.9 -8079)"/>
  <path d="M238,8589.5c3.8-13.8,92.4-446.9,94-449.5s6.6-27.7,23.3-42.5,26.1-18.2,26.1-18.2,3.8,12.6,2.2,15.1-23.3,22.3-26.7,27.4-14.5,39-14.8,46.9-70.4,417.9-70.4,417.9Z" transform="translate(-235.9 -8079)"/>
  <path class="a" d="M238.2,8589.7s91.4-443.2,93.3-447.2,8-32.3,23.9-45.3S381,8079,381,8079l1.4,3.3s-25.9,19.6-31.4,28.1-10.6,25.2-13.3,34.6-92.2,444-92.2,444Z" transform="translate(-235.9 -8079)"/>
  <path d="M1126.1,8589.5c-3.8-13.8-92.4-446.9-94-449.5s-6.6-27.7-23.3-42.5-26.1-18.2-26.1-18.2-3.8,12.6-2.2,15.1,23.3,22.3,26.7,27.4,14.5,39,14.8,46.9,70.4,417.9,70.4,417.9Z" transform="translate(-235.9 -8079)"/>
  <path class="a" d="M1125.9,8589.7s-91.4-443.2-93.3-447.2-8-32.3-23.9-45.3-25.6-18.2-25.6-18.2l-1.4,3.3s25.9,19.6,31.4,28.1,10.6,25.2,13.3,34.6,92.2,444,92.2,444Z" transform="translate(-235.9 -8079)"/>
  <path class="a" d="M625.8,8621.7c11.8,4.4,33.6,5.9,56,6s44.2-1.6,56-6c75.7-28.1,353.9-37.7,389.9-29.3l-1.8-9.1c-36.1-8.4-312.4-5-388.1,23.1-11.8,4.4-33.6,5.9-56,6s-44.2-1.6-56-6c-75.7-28.1-351.6-33.2-387.6-24.8-1.2,10.6-2.3,10.8-2.3,10.8C272,8584,550.2,8593.6,625.8,8621.7Z" transform="translate(-235.9 -8079)"/>
  <path d="M737.9,8620.9c-11.8,4.4-33.6,5.9-56,6s-44.2-1.6-56-6c-75.7-28.1-353.9-37.7-389.9-29.3,3.4,8.4,10.1,24.3,10.1,24.3s20.1,0,22.6,4.2,50.2,55.4,52.8,57.8c21.4,19.2,146.1,51.4,238.9,36.1,4-.7,49.4-12.4,64.1-29.3,12.7-10.6,24.5-22.8,28.1-26.4,15-15,43.3-15.6,58.9,0,3.5,3.5,15.3,15.7,28.1,26.4,14.7,16.9,60.1,28.6,64.1,29.3,92.7,15.3,217.4-16.9,238.9-36.1,2.6-2.4,50.3-53.6,52.8-57.8s22.6-4.2,22.6-4.2,6.7-15.9,10.1-24.3C1091.8,8583.2,813.6,8592.8,737.9,8620.9Zm-107.5,35.5c-2.5,10-14.8,30.8-40.6,39.4-82.6,27.7-195.8.8-222.2-7.1-14.5-4.4-47.4-22.5-57.4-44.9-13.5-30.2-4.2-37.3,5.8-39.4,70.4-14.7,204.8,2,243.2,10.5C595.5,8623,635.9,8634.4,630.4,8656.5Zm429.8-12.6c-10,22.3-42.9,40.5-57.4,44.9-26.4,8-139.6,34.8-222.2,7.1-25.8-8.6-38.2-29.4-40.6-39.4-5.5-22,34.9-33.4,71.3-41.5,38.4-8.5,172.7-25.1,243.2-10.5C1064.5,8606.6,1073.7,8613.7,1060.2,8643.9Z" transform="translate(-235.9 -8079)"/>
</svg>
