<svg xmlns="http://www.w3.org/2000/svg" width="878" height="256.47" viewBox="0 0 878 256.47"><defs><style>.a{fill:#333;}.b{fill:#232323;}</style></defs><title>Front</title><path class="a" d="M1064.82,1059.41c-10.16,0-43.4,2.75-49.44,5.49s-77.74,122.79-83,123.34-11.54-.82-13.46-3-11-17.31-8.52-26.1,86.25-109.33,86.25-109.33l68.4-32.69Z" transform="translate(-243 -962.99)"/><path class="a" d="M297.51,1060.15c9.78,0,41.75,2.64,47.57,5.29s74.79,118.13,79.81,118.66,11.1-.79,12.95-2.91,10.57-16.65,8.19-25.11-83-105.18-83-105.18l-65.8-31.45Z" transform="translate(-243 -962.99)"/><path class="b" d="M1119.33,989.05s-9.49-8.64-32.38-12.21C1024,967,910.42,959.85,865,964.37c-114.57,11.39-112.8,37.74-131.38,47.82s-88.66,4.1-88.66,4.1l-.06.48c-6.07-.9-11.18-2.21-14.56-4-18.58-10.09-16.81-36.43-131.38-47.82-45.39-4.51-159,2.65-221.91,12.48-22.89,3.57-32.38,12.21-32.38,12.21-1.33,3.19-2.39,45.39-1.06,46.19s18,5.63,28.67,32.12c14.07,35,19.72,85.55,54.15,120,29,29,150,51.45,234.92,4.51,7.94-4.39,10.37-8.75,26.59-26.79,18.76-20.88,46.09-86.26,50.51-90.68,1-1,14.76-21.81,35.41-21.83,37.4-1.57,49.16,20.06,50.17,21.07,4.43,4.43,33.26,70,52,90.91,16.22,18,18.65,22.4,26.59,26.79,84.93,46.94,205.95,24.46,234.92-4.51,34.43-34.43,40.08-84.94,54.15-120,10.63-26.49,27.34-31.32,28.67-32.12S1120.66,992.24,1119.33,989.05ZM561.91,1170.22c-14.1,11.24-42.41,40.17-126.72,39.51s-116.94-49.81-127.38-97.25c-9.52-43.24-9.12-57.48-4.89-73.2,1.33-4.93,10.17-41,63.56-46.25s173.2-13,220,26.56S578.16,1157.27,561.91,1170.22Zm495.62-57.74c-10.44,47.44-43.08,96.59-127.38,97.25s-112.61-28.27-126.72-39.51c-16.25-12.95-71.35-111.12-24.58-150.63s166.62-31.84,220-26.56,62.23,41.32,63.56,46.25C1066.65,1055,1067,1069.24,1057.53,1112.48Z" transform="translate(-243 -962.99)"/></svg>