<svg xmlns="http://www.w3.org/2000/svg" width="972.5" height="258.9" viewBox="0 0 972.5 258.9">
  <defs>
    <style>
      .a {
        fill: #050505;
      }

      .b {
        fill: #2b2b2b;
      }
    </style>
  </defs>
  <title>Left2</title>
  <path class="a" d="M3896.4,1062c13.6-2.6,220.5-22.9,220.5-22.9l-22.4-39.1L3899,1019.8l-89.1,19.3s-59.4,8.9-63.6,10.9-134.5,97-134.5,101.7,9.4,24.5,18.2,24,113.7-103.2,123.6-105.8,113.1-17.2,119.9-14.6S3896.4,1062,3896.4,1062Z" transform="translate(-3154.4 -961.1)"/>
  <path class="b" d="M3759.3,1018.8c4.2,8.3,5.7,148.6-50,171.5,41.2-18.8,65.2-64.1,70.4-70.4s9.4-79.8,8.9-88.6-43.3-42.2-43.3-42.2Z" transform="translate(-3154.4 -961.1)"/>
  <path class="a" d="M4124.6,993.7s-144.2-57.9-241.2,9c-7.1,4.9-12.7,23.5-56.8,17.2-12.7-1.8-22.2-5-29.8-8.8-18.9-9.5-26-22.7-40.8-28.1-96.2-34.8-286.6-21.7-332.7-5.8a293.2,293.2,0,0,1-30.2,8.1s-21.6,1-23.7,2.6-198.3,34.3-214.5,51.1c-1.8,9.9,4.4,140,7.6,144.7s13.6,3.1,14.9-.5,1.6-29.2.8-33.4-12.3-78.5-10.9-82.1,8.1-12.5,19-12.8,186.4-15.4,198.9-21.6,43.3,2.3,56.5,16.3,37.7,80.3,38.8,87.6,16.7,72.6,98,81,147.8-14.3,174.1-46.2c39.8-48.2,46.9-91.7,55.8-110,3.8-8,29.5-8.7,37.4-.9s43.3,96.4,61.5,108.1c16.3,10.4,54,38,67.8,40.3,22.9,3.8,91.8-2.8,113-40.3s23-109.1,31.3-116.1a114.8,114.8,0,0,1,8-9.7Zm-349.9,83.4c-.6,26.7-13.4,68.6-44.3,95.9-48.7,43-133.5,36.8-166,30-15.8-3.3-27.6-12-28.9-12.8-4.4-2.6-45.1-41.2-42.5-133.7.2-7.6-12-58.1,68.6-72.2s186.4,16.9,197.1,33.9C3764.5,1027.7,3775.4,1043.3,3774.6,1077.2Zm280.2,103.7c-38.8,20.1-94.1,33.8-133.7-34.9-36.2-62.8-19.6-111.6-19.6-111.6,10.4-32.1,140.5-68.8,193.9-13.3C4109.2,1035.3,4093.7,1160.8,4054.9,1180.9Z" transform="translate(-3154.4 -961.1)"/>
</svg>
