<svg xmlns="http://www.w3.org/2000/svg" width="1014.6" height="260" viewBox="0 0 1014.6 260">
  <defs>
    <style>
      .a {
        fill: #2b2b2b;
      }

      .b {
        fill: #232323;
      }
    </style>
  </defs>
  <title>Left3</title>
  <path class="a" d="M5158.3,1059.1c15.6-5.5,213.5-11.3,213.5-11.3l105-2.8s24.4-5.3,30.7-4.9,86.9-7.1,92.6-7.1-11.7-40.6-11.7-40.6l-68.2,3.9-383.1,45.2s-137.5,99-136.4,102.5,9.5,23.7,14.1,26.5,9.2,2.8,11.3,1.1S5143.1,1064.4,5158.3,1059.1Z" transform="translate(-4598.6 -958)"/>
  <path class="b" d="M5556.4,989.8c14.1,11,49.8,86.6,21.2,166.8,11.3-9.5,18-34.6,18-34.6s10.6-105.3,6-114.2S5556.4,989.8,5556.4,989.8Z" transform="translate(-4598.6 -958)"/>
  <path class="b" d="M5310.2,982c19.6,7.2,60.8,29.6,60.8,53.9,0,11.7-9.6,24-12.4,34-.8,3-7.6,47.4-6.5,52.5s-11.7,43.3-13.7,49.5,8.9,2.4,10,1.7,23.4-32.3,24.7-36.7,17.9-79.7,17.9-87.6-5.5-36.7-12.4-42.9S5310.2,982,5310.2,982Z" transform="translate(-4598.6 -958)"/>
  <path d="M5613,1004.7s-2.1-20.6-39.8-27.5-66.3-4.1-97.2,6.9c-11.3,4-31.2,30.9-33.3,32.3s-27.5-.7-37.8-.7-17.9-24.7-51.5-46-227.3-7.6-235.6-4.8-59.1,13.7-79,15.1c0,0-26,1.3-37.3.3-30.1-2.6-358.2,50.6-369.1,58.3-3.2,2.2-31.7,109.3-33.6,112.8s7.4,34,7.7,36.2,4.5,3.8,11.5,1.6,8.3-26.3,7.7-30.1,24.7-98.7,24.7-98.7l3.2-4.8c3.2-4.8,196.7-13.8,196.7-13.8s125.6-10.3,193.2-16.3,78.2,35.9,80.7,57.4,25,85.5,31.4,94.2,92.3,67.8,162,26.5c63.9-37.8,65.2-72.7,75.1-113s21.5-37.2,34.1-39.1c-5.5,49.8,45.7,116.8,61.5,131.9s53.6,13.6,61.1,13.7c17.5.3,36.4-31.6,51.2-60.8S5613,1004.7,5613,1004.7Zm-231.1,73.5c-8.6,35.7-10.6,60.4-47.4,98.2s-118.5,35.4-153.2-7.9c-10-12.5-40.2-108.5-22.3-147.7s103.3-62.5,187.8-25.1C5370.9,1006.4,5390.5,1042.5,5381.9,1078.2Zm165.2,109.2c-41.9,11.7-63.5-61.1-63.5-61.1-2.7-8.9-24.4-68-6.2-102.3s86.2-46.4,112.3-12.4S5589,1175.7,5547.1,1187.4Z" transform="translate(-4598.6 -958)"/>
</svg>
