<svg xmlns="http://www.w3.org/2000/svg" width="976" height="261.4" viewBox="0 0 976 261.4">
  <defs>
    <style>
      .a {
        fill: #232323;
      }

      .b {
        fill: #2d2d2d;
      }

      .c {
        fill: #070707;
      }
    </style>
  </defs>
  <title>Left1</title>
  <path class="a" d="M1737.1,1064.9c2.9-5.7,26.9-16.8,36.7-16.4s39.2-8.2,49.8-13.4c9-21.8,7.8-58,7.8-58s-75.9,22.5-95.1,44.3S1737.1,1064.9,1737.1,1064.9Z" transform="translate(-1728 -958)"/>
  <path class="a" d="M2673,1041.6c-28.7,3.5-55.7,10.5-93.5,13.4-62.5,4.8-134.4,5.2-145.3,9.9-17.6,7.6-103.7,107.7-107.8,109.6s-13.1,5-14.3,1.5-17.1-19.1-14.3-26.4,112.7-100.1,115.9-101.6,238-58.4,238-58.4Z" transform="translate(-1728 -958)"/>
  <path class="b" d="M1733.8,1056.1c5.3,15.7,51.8,124.9,55.1,125.6s12.2-1.1,13.5-2.3,7.3-15.3,6.1-19.9-25.3-54.6-30.2-61.1-22-43.5-20.4-48.9S1733.8,1056.1,1733.8,1056.1Z" transform="translate(-1728 -958)"/>
  <path class="c" d="M2702.4,991.2c-43.5-23.3-244.1-44.9-315.5-5.3-29.8,16.5-38.2,28.8-61.8,29.8-27,1.1-68,2.7-78.2-7.3-23.1-22.5-57.3-42.8-131.2-47.5-67.1-4.3-224.5-7.3-295.1,19.5-8,3-1,51.6-1,51.6s31.2,18.5,32.7,23.5,34.8,101.5,38.4,107.1c6.4,10.1,34.3,44.7,110.2,54.6s184.7-12,218.6-70.8,37.8-83.8,50.6-90.9c7-3.8,30.6-14.4,56.7,3.2,8.8,5.9,41.8,76.9,44.1,79.6s39,53.4,92.9,67.8c59.4,15.8,165.3-.2,189.8-41.8,19.6-33.2,27.7-85.1,29.2-94.5s10.4-25.2,21.2-31.3C2704.4,1031.7,2703.4,991.7,2702.4,991.2Zm-529.4,178c-57.2,62.4-236.6,44.4-260.8-9.7s-32.4-106.3-18.7-134c4.1-8.4,20.8-38.1,81.1-39.8s162.2-6,211.5,18.6S2244.3,1091.4,2173,1169.1Zm446,9.2c-39.8,28.9-153.4,37.2-198.4-10.3s-46.8-122.6-37-138.9c24.9-41.6,195.3-60.7,264.8-19.2C2675.7,1026.2,2659.5,1148.9,2619,1178.3Z" transform="translate(-1728 -958)"/>
</svg>
