<svg xmlns="http://www.w3.org/2000/svg" width="976" height="261.4" viewBox="0 0 976 261.4">
  <defs>
    <style>
      .a {
        fill: #232323;
      }

      .b {
        fill: #2d2d2d;
      }

      .c {
        fill: #070707;
      }
    </style>
  </defs>
  <title>Right1</title>
  <path class="a" d="M2694.9,3412.9c-2.9-5.7-26.9-16.8-36.7-16.4s-39.2-8.2-49.8-13.4c-9-21.8-7.8-58-7.8-58s75.9,22.5,95.1,44.3S2694.9,3412.9,2694.9,3412.9Z" transform="translate(-1728 -3306)"/>
  <path class="a" d="M1759,3389.6c28.7,3.5,55.7,10.5,93.5,13.4,62.5,4.8,134.4,5.2,145.3,9.9,17.6,7.6,103.7,107.7,107.8,109.6s13.1,5,14.3,1.5,17.1-19.1,14.3-26.4-112.7-100.1-115.9-101.6-238-58.4-238-58.4Z" transform="translate(-1728 -3306)"/>
  <path class="b" d="M2698.1,3404.1c-5.3,15.7-51.8,124.9-55.1,125.6s-12.2-1.1-13.5-2.3-7.3-15.3-6.1-19.9,25.3-54.6,30.2-61.1,22-43.5,20.4-48.9S2698.1,3404.1,2698.1,3404.1Z" transform="translate(-1728 -3306)"/>
  <path class="c" d="M1728.1,3386.3c10.9,6.1,19.9,23.2,21.2,31.3s9.6,61.3,29.2,94.5c24.5,41.6,130.4,57.7,189.8,41.8,53.9-14.4,90.6-65.1,92.9-67.8s35.3-73.7,44.1-79.6c26.2-17.7,49.7-7.1,56.7-3.2,12.9,7.1,16.7,32.1,50.6,90.9s142.3,80.8,218.6,70.8,103.8-44.5,110.2-54.6c3.5-5.6,36.9-102.2,38.4-107.1s32.7-23.5,32.7-23.5,7-48.5-1-51.6c-70.6-26.7-228-23.8-295.1-19.5-73.9,4.8-108.2,25-131.2,47.5-10.1,9.9-51.1,8.3-78.2,7.3-23.7-1-32-13.3-61.8-29.8-71.4-39.5-272-17.9-315.5,5.3C1728.6,3339.7,1727.5,3379.7,1728.1,3386.3Zm517.6-34.2c49.3-24.6,151.2-20.3,211.5-18.6s77,31.4,81.1,39.8c13.8,27.8,5,80.9-18.7,134s-203.6,72.2-260.8,9.7C2187.7,3439.4,2196.5,3376.8,2245.8,3352.2Zm-462.2,5.7c69.5-41.5,239.9-22.4,264.8,19.2,9.8,16.3,8,91.4-37,138.9s-158.6,39.2-198.4,10.3S1756.2,3374.2,1783.6,3357.9Z" transform="translate(-1728 -3306)"/>
</svg>
