<svg xmlns="http://www.w3.org/2000/svg" width="1014.6" height="260" viewBox="0 0 1014.6 260">
  <defs>
    <style>
      .a {
        fill: #2b2b2b;
      }

      .b {
        fill: #232323;
      }
    </style>
  </defs>
  <title>Right3</title>
  <path class="a" d="M5053.5,3403.1c-15.6-5.5-213.5-11.3-213.5-11.3l-105-2.8s-24.4-5.3-30.7-4.9-86.9-7.1-92.6-7.1,11.7-40.6,11.7-40.6l68.2,3.9,383.1,45.2s137.5,99,136.4,102.5-9.5,23.7-14.1,26.5-9.2,2.8-11.3,1.1S5068.7,3408.4,5053.5,3403.1Z" transform="translate(-4598.6 -3302)"/>
  <path class="b" d="M4655.4,3333.8c-14.1,11-49.8,86.6-21.2,166.8-11.3-9.5-18-34.6-18-34.6s-10.6-105.3-6-114.2S4655.4,3333.8,4655.4,3333.8Z" transform="translate(-4598.6 -3302)"/>
  <path class="b" d="M4901.7,3326c-19.6,7.2-60.8,29.6-60.8,53.9,0,11.7,9.6,24,12.4,34,.8,3,7.6,47.4,6.5,52.5s11.7,43.3,13.7,49.5-8.9,2.4-10,1.7-23.4-32.3-24.7-36.7-17.9-79.7-17.9-87.6,5.5-36.7,12.4-42.9S4901.7,3326,4901.7,3326Z" transform="translate(-4598.6 -3302)"/>
  <path d="M4611.2,3480.2c14.8,29.2,33.7,61.1,51.2,60.8,7.6-.1,45.3,1.4,61.1-13.7s67-82.1,61.5-131.9c12.6,1.9,24.2-1.3,34.1,39.1s11.2,75.3,75.1,113c69.7,41.2,155.6-17.9,162-26.5s28.8-72.7,31.4-94.2,13.1-63.4,80.7-57.4,193.2,16.3,193.2,16.3,193.5,9,196.7,13.8l3.2,4.8s25.3,94.8,24.7,98.7.6,27.9,7.7,30.1,11.2.6,11.5-1.6,9.6-32.7,7.7-36.2-30.5-110.6-33.6-112.8c-10.9-7.7-339-60.9-369.1-58.3-11.2,1-37.3-.3-37.3-.3-19.9-1.4-70.7-12.4-79-15.1s-201.9-16.5-235.6,4.8-41.2,46-51.5,46-35.7,2.1-37.8.7-22-28.3-33.3-32.3c-30.9-11-59.4-13.7-97.2-6.9s-39.8,27.5-39.8,27.5S4596,3450.3,4611.2,3480.2ZM4865,3339.8c84.5-37.4,170-14.1,187.8,25.1s-12.3,135.2-22.3,147.7c-34.7,43.3-116.4,45.7-153.2,7.9s-38.8-62.5-47.4-98.2S4840.9,3350.4,4865,3339.8Zm-242.8,15.8c26.1-34,94.1-22,112.3,12.4s-3.4,93.4-6.2,102.3c0,0-21.6,72.8-63.5,61.1S4596.1,3389.6,4622.2,3355.6Z" transform="translate(-4598.6 -3302)"/>
</svg>
