<svg xmlns="http://www.w3.org/2000/svg" width="972.5" height="258.9" viewBox="0 0 972.5 258.9">
  <defs>
    <style>
      .a {
        fill: #050505;
      }

      .b {
        fill: #2b2b2b;
      }
    </style>
  </defs>
  <title>Right2</title>
  <path class="a" d="M3385.1,3406c-13.6-2.6-220.5-22.9-220.5-22.9l22.4-39.1,195.5,19.8,89.1,19.3s59.4,8.9,63.6,10.9,134.5,97,134.5,101.7-9.4,24.5-18.2,24-113.7-103.2-123.6-105.8-113.1-17.2-119.9-14.6S3385.1,3406,3385.1,3406Z" transform="translate(-3154.4 -3305.1)"/>
  <path class="b" d="M3522.2,3362.8c-4.2,8.3-5.7,148.6,50,171.5-41.2-18.8-65.2-64.1-70.4-70.4s-9.4-79.8-8.9-88.6,43.3-42.2,43.3-42.2Z" transform="translate(-3154.4 -3305.1)"/>
  <path class="a" d="M3154.4,3387.4a114.8,114.8,0,0,1,8,9.7c8.3,7,10.1,78.5,31.3,116.1s90,44.1,113,40.3c13.8-2.3,51.4-29.9,67.8-40.3,18.3-11.6,53.7-100.3,61.5-108.1s33.5-7.1,37.4.9c8.8,18.3,16,61.8,55.8,110,26.3,31.9,92.8,54.6,174.1,46.2s97-73.7,98-81,25.3-73.2,38.8-87.6,44-22.6,56.5-16.3,187.9,21.4,198.9,21.6,17.7,9.1,19,12.8-10.2,77.9-10.9,82.1-.5,29.7.8,33.4,11.7,5.2,14.9.5,9.4-134.8,7.6-144.7c-16.2-16.8-212.4-49.5-214.5-51.1s-23.7-2.6-23.7-2.6a293.2,293.2,0,0,1-30.2-8.1c-46.1-15.9-236.5-28.9-332.7,5.8-14.7,5.3-21.9,18.6-40.8,28.1-7.6,3.8-17.1,7-29.8,8.8-44.1,6.3-49.8-12.3-56.8-17.2-97-66.9-241.2-9-241.2-9Zm368.5-25.2c10.7-16.9,116.5-48,197.1-33.9s68.3,64.6,68.6,72.2c2.6,92.5-38.1,131.1-42.5,133.7-1.3.8-13.1,9.5-28.9,12.8-32.6,6.8-117.3,13-166-30-31-27.3-43.7-69.3-44.3-95.9C3506.1,3387.3,3517,3371.7,3522.9,3362.2Zm-337,2.9c53.4-55.5,183.5-18.8,193.9,13.3,0,0,16.7,48.7-19.6,111.6-39.6,68.7-94.9,55-133.7,34.9S3172.2,3379.3,3185.9,3365.1Z" transform="translate(-3154.4 -3305.1)"/>
</svg>
