<svg xmlns="http://www.w3.org/2000/svg" width="884.3" height="431.6" viewBox="0 0 884.3 431.6">
  <defs>
    <style>
      .a {
        fill: #2d2d2d;
      }
    </style>
  </defs>
  <title>Top1</title>
  <path d="M1113.5,3404.5s-89.1,243.7-91.3,249.3-14.8,73.9-12.7,80.2-5.6,12.7-5.6,12.7-9.1-2.8-9.1-6.3-5.6-15.5-5.6-19.7,14.1-97.8,19.7-110.5,89.7-210.7,89.7-210.7Z" transform="translate(-239.7 -3315.1)"/>
  <path class="a" d="M1006.1,3735.6c-6.3,1.4-8.4-9.3-9.1-12.8s8.4-46.4,10.6-64c8.4-27.4,99.9-256.2,99.9-256.2l6.1,1.9-87.9,240.1c-3.4,9.2-15.6,76.8-15.9,80.3S1006.1,3735.6,1006.1,3735.6Z" transform="translate(-239.7 -3315.1)"/>
  <path d="M254.2,3404.5s89.1,243.7,91.3,249.3,14.8,73.9,12.7,80.2,5.6,12.7,5.6,12.7,9.1-2.8,9.1-6.3,5.6-15.5,5.6-19.7-14.1-97.8-19.7-110.5-89.7-210.7-89.7-210.7Z" transform="translate(-239.7 -3315.1)"/>
  <path class="a" d="M361.7,3735.6c6.3,1.4,8.4-9.3,9.1-12.8s-8.4-46.4-10.6-64c-8.4-27.4-99.9-256.2-99.9-256.2l-6.1,1.9,87.9,240.1c3.4,9.2,15.6,76.8,15.9,80.3S361.7,3735.6,361.7,3735.6Z" transform="translate(-239.7 -3315.1)"/>
  <path class="a" d="M296.1,3384.8c3.9-4.7,22.2-30.5,54.8-40.6,48.1-14.9,119.7-16.1,159.1-13.4,58.6,4.1,111.2,22.8,114.5,45.6,16.9-4.2,0-32.2,0-32.2s-244.6-75.3-334.8,31.7C270.6,3398.3,296.1,3384.8,296.1,3384.8Z" transform="translate(-239.7 -3315.1)"/>
  <path class="a" d="M1071.5,3384.8c-3.9-4.7-22.2-30.5-54.8-40.6-48.1-14.9-119.7-16.1-159.1-13.4-58.6,4.1-111.2,22.8-114.5,45.6-16.9-4.2,0-32.2,0-32.2s244.6-75.3,334.8,31.7C1097,3398.3,1071.5,3384.8,1071.5,3384.8Z" transform="translate(-239.7 -3315.1)"/>
  <path class="a" d="M1111,3374.4l-47.8-2.9a87.8,87.8,0,0,1,11,28.6c5.6,28.7-1.3,70.8-4.2,77.1-1.8,3.9-11.4,32.2-38,43.8s-79.2,11.7-99.8,11.6c-45.7-.1-91-9.6-121.4-27.4-33.3-19.5-71.9-81.8-69.1-121.9.6-8.3,4.2-15.5,9.5-21.8-29.1.4-53.5,1.7-69.4,4.1-15.2-2.3-38.1-3.6-65.4-4.1,5.3,6.2,8.9,13.4,9.4,21.7,2.7,40.1-35.9,102.4-69.1,121.9-30.4,17.8-75.7,27.3-121.4,27.4-20.5,0-71.8.6-99.8-11.6s-39.7-35.7-41.5-39.6c-2.9-6.3-11.2-52.3-5.6-80.9,2.3-11.5,4.6-21.1,9.2-28.8-31.7,1.8-45.1,2.7-45.1,2.7l-12.7,12.7,7,18.3c9.9-2.8,18.2-5.8,18.5-2.3s-3.1,79.9,20.2,107.8,67.8,42.2,140.1,44.3c88.7,2.5,117.6-17.4,131.3-24.6s47.5-31,67.9-67.6,28.9-50.3,35.3-60.6l.6-.7c6.5-8.1,14-12.2,21.1-12.6s14.6,4.5,21.1,12.6l.6.7c6.4,10.3,15.5,25.2,35.3,60.6s54.2,60.4,67.9,67.6,42.6,27.1,131.3,24.6c72.3-2.1,117.2-16.8,140.1-44.3s19.8-104.3,20.2-107.8,8.7-.5,18.5,2.3l7-18.3Z" transform="translate(-239.7 -3315.1)"/>
  <path d="M1117.6,3339.6c-24.6-5.6-263.5-49.1-387.1-4.9-2,.7-4.2,1.4-6.5,1.9l-1.9.2a201.5,201.5,0,0,1-80.3,0l-1.9-.2c-2.4-.6-4.6-1.2-6.5-1.9-123.6-44.1-362.4-.7-387.1,4.9,3.1,10.3-7,45-6.3,47.2s20.4,0,20.4,0,4.9,8.4,4.9,12.7.1,84.4,29.1,108.8c55.7,46.9,225.5,54,288.3-8.2,31-30.7,60.5-82.7,69.9-99.9,1.5-2,2.6-3.7,3.3-5a29.9,29.9,0,0,1,52.1,0c.7,1.2,1.8,2.9,3.3,5,9.3,17.2,38.9,69.3,69.9,99.9,62.8,62.2,232.6,55.1,288.3,8.2,29.1-24.5,29.1-104.6,29.1-108.8s4.9-12.7,4.9-12.7,19.7,2.1,20.4,0S1114.6,3349.9,1117.6,3339.6ZM555.2,3504.8c-30.4,17.8-75.7,27.3-121.4,27.4-20.5,0-71.8.6-99.8-11.6s-36.2-40-38-43.8c-2.9-6.3-9.8-48.4-4.2-77.1s24.9-47,31.1-50.7c46.1-27.1,169.3-33.3,242.3-15.6,18.7,4.5,57.2,20.6,59.1,49.4C627,3423,588.4,3485.3,555.2,3504.8Zm515.1-28c-1.8,3.9-11.4,32.2-38,43.8s-79.2,11.7-99.8,11.6c-45.7-.1-91-9.6-121.4-27.4-33.3-19.5-71.9-81.8-69.1-121.9,1.9-28.8,40.4-44.8,59.1-49.4,73-17.7,196.2-11.5,242.3,15.6,6.3,3.7,25.2,20.6,31.1,50.7S1073.2,3470.6,1070.3,3476.9Z" transform="translate(-239.7 -3315.1)"/>
</svg>
