<svg xmlns="http://www.w3.org/2000/svg" width="880" height="547.3" viewBox="0 0 880 547.3">
  <defs>
    <style>
      .a {
        fill: #2d2e30;
      }

      .b {
        fill: #222;
      }

      .c {
        fill: #3d3d3d;
      }
    </style>
  </defs>
  <title>Top2</title>
  <path d="M1110,6103.3l-27.7-5.5s-87.8,314.7-89.2,321.8-10.8,114.8-10.8,114.8,2.9,19.4,5,22.2,11.5,4.3,11.5,4.3,8.6-127,15.1-143.5C1017.2,6409.2,1110,6103.3,1110,6103.3Z" transform="translate(-242.2 -6013.7)"/>
  <path class="a" d="M1016.1,6421.1c-1.2,4.8-17,137.1-17,137.1s-7.6,1.5-9.6,0,13.3-141.4,13.3-141.4,96.2-312.4,96.5-316.4,15.1,2.9,15.1,2.9S1018.4,6411.4,1016.1,6421.1Z" transform="translate(-242.2 -6013.7)"/>
  <polygon class="b" points="0 65.2 7.9 89.6 30.1 84.1 15.1 61.6 0 65.2"/>
  <path d="M254.4,6103.3l27.7-5.5s87.8,314.7,89.2,321.8,10.8,114.8,10.8,114.8-2.9,19.4-5,22.2-11.5,4.3-11.5,4.3-8.6-127-15.1-143.5C347.3,6409.2,254.4,6103.3,254.4,6103.3Z" transform="translate(-242.2 -6013.7)"/>
  <path class="a" d="M1098.9,6101.2s-16.5,45.9-28.7,74.6-113.3,22.2-139.9,24.4-90.4-13.6-96.8-14.3-63.8-40.2-63.8-40.2l-47.3-66.7-2.3-1.3c-1.5-21.5-3.6-40.3-3.6-40.3l-34,19.2-34-19.2s-2.1,18.8-3.6,40.3l-2.3,1.3-47.3,66.7s-57.4,39.5-63.8,40.2-70.3,16.5-96.8,14.3-127.7,4.3-139.9-24.4-28.7-74.6-28.7-74.6c-.6,12.9-2.7,68.4,12.9,82.3s63.9,43.2,160.7,37.5c65.9-3.9,118.4-21.5,159.3-50.9,28.3-20.4,52.1-82.1,83.6-81.9s53.7,60.8,83.6,81.9c41.1,29.1,93.3,47,159.3,50.9,96.8,5.7,145.1-23.6,160.7-37.5S1099.5,6114.1,1098.9,6101.2Z" transform="translate(-242.2 -6013.7)"/>
  <path class="a" d="M348.4,6421.1c1.2,4.8,17,137.1,17,137.1s7.6,1.5,9.6,0-13.3-141.4-13.3-141.4-96.2-312.4-96.5-316.4-15.1,2.9-15.1,2.9S346,6411.4,348.4,6421.1Z" transform="translate(-242.2 -6013.7)"/>
  <polygon class="b" points="880 65.2 872.1 89.6 849.9 84.1 864.9 61.6 880 65.2"/>
  <path class="c" d="M425.2,6030.9c122.4-11.3,166.6,6.9,185.8,20.4s16,21.8,12.4,32.6,8.4-32.3,8.4-32.3l-43.8-23L461.4,6018l-86.1,8.6-69.2,26.5L281,6084.7v48.8l25.1,43.8a116.5,116.5,0,0,1-10.9-32.8c-3.1-17.4-2.3-40.1-.6-49.7C298.6,6072,316.1,6040.9,425.2,6030.9Z" transform="translate(-242.2 -6013.7)"/>
  <path class="c" d="M939.2,6030.9c-122.4-11.3-166.6,6.9-185.8,20.4s-16,21.8-12.4,32.6-8.4-32.3-8.4-32.3l43.8-23L902.9,6018l86.1,8.6,69.2,26.5,25.1,31.6v48.8l-25.1,43.8a116.5,116.5,0,0,0,10.9-32.8c3.1-17.4,2.3-40.1.6-49.7C1065.7,6072,1048.2,6040.9,939.2,6030.9Z" transform="translate(-242.2 -6013.7)"/>
  <path d="M1112.2,6040.9a121.4,121.4,0,0,1-42.7-1.4c-6.3-1.4-13.3-6.5-43.4-13.6-16.3-3.9-134.5-17.2-202.3-10.1-19.8,2.1-40.6,2.6-70.3,12.2-7.2,2.3-40.6,12-72.6,12s-62.7-9.7-69.9-12c-29.7-9.7-50.5-10.1-70.3-12.2-67.8-7.1-186,6.2-202.3,10.1-30.1,7.2-37.1,12.3-43.4,13.6a121.4,121.4,0,0,1-42.7,1.4l-10,38a20.5,20.5,0,0,1,10,0c5,1.4,12.9,11.5,12.9,21.5s.3,44.3,1.8,49.9c2.5,9.5,19,35.5,49.9,45.9,16.4,5.5,58.1,15.2,101.9,14.7,48.6-.5,100.4-12.3,134.1-28.7,58.6-28.5,86.8-81.1,101.2-98.3,22.6-24.2,37.3-26.2,56.4,0,14.4,17.2,42.6,69.8,101.2,98.3,37.2,18.1,101,29.3,153,28.7,37.8-.5,68.4-9.8,83-14.7,30.8-10.4,47.3-36.4,49.9-45.9,1.5-5.6,1.8-39.8,1.8-49.9s7.9-20.1,12.9-21.5a20.5,20.5,0,0,1,10,0ZM579.4,6152.5c-21.8,18.7-52.4,31.6-67.1,34.4-55.9,10.9-169.6,18.6-207.3-17.9-20.8-20.2-18.1-31.2-18.7-46.6-.4-10.1-4-46.6,30-66.1,13.3-7.6,39.3-19.2,65.7-24.6,69.3-14.1,169.3-15,225.2,11.1C634,6055.2,629.3,6109.6,579.4,6152.5Zm496.9-30.1c-.5,15.4,2.2,26.5-18.7,46.6-37.8,36.5-151.4,28.8-207.3,17.9-14.7-2.9-45.3-15.7-67.1-34.4-49.9-42.9-54.6-97.3-28-109.8,55.9-26.2,156-25.2,225.2-11.1,26.5,5.4,52.4,17,65.7,24.6C1080.3,6075.7,1076.7,6112.2,1076.3,6122.3Z" transform="translate(-242.2 -6013.7)"/>
</svg>
