<svg xmlns="http://www.w3.org/2000/svg" width="887.6" height="624.6" viewBox="0 0 887.6 624.6">
  <defs>
    <style>
      .a {
        stroke: #000;
        stroke-miterlimit: 10;
      }

      .b {
        fill: #2b2b2b;
      }

      .c {
        fill: #262626;
      }
    </style>
  </defs>
  <title>Top3</title>
  <path class="a" d="M1756,6104l34-1.9,70,377.5s9.3,51.4,9.3,76.2,3,65.9,1.1,72.5-9.3,25.5-10.4,25.9-11.1-.7-11.1-.7-4.1-97.7-4.1-104.7S1756,6104,1756,6104Z" transform="translate(-1745.2 -6030.2)"/>
  <path class="b" d="M1848.5,6653.9l10.8.8s-5.7-101.8-6.1-107.9c-.6-8.9-85.7-442.8-85.7-442.8h-11.5s87.9,440.6,88.1,443.9C1844.8,6557.7,1848.5,6653.9,1848.5,6653.9Z" transform="translate(-1745.2 -6030.2)"/>
  <path class="a" d="M2627.1,6104l-34-1.9-70,377.5s-9.3,51.4-9.3,76.2-3,65.9-1.1,72.5,9.3,25.5,10.4,25.9,11.1-.7,11.1-.7,4.1-97.7,4.1-104.7S2627.1,6104,2627.1,6104Z" transform="translate(-1745.2 -6030.2)"/>
  <path class="b" d="M2534.5,6653.9l-10.8.8s5.7-101.8,6.1-107.9c.6-8.9,85.7-442.8,85.7-442.8h11.5s-87.9,440.6-88.1,443.9C2538.2,6557.7,2534.5,6653.9,2534.5,6653.9Z" transform="translate(-1745.2 -6030.2)"/>
  <polygon class="c" points="861.6 74.6 884.9 73.5 887.6 56.1 862.7 53.5 861.6 74.6"/>
  <polygon class="c" points="26 74.6 2.7 73.5 0 56.1 24.9 53.5 26 74.6"/>
  <path class="b" d="M2607,6127.5c-4.8,13.4-17.4,32.3-22.8,35-9.4,4.7-43.3,17.8-92.2,18.9-27.7.6-87.8.1-134.9-9.4-38-7.7-65.8-24.1-74.9-29.4-18.6-10.8-65.8-60.3-71.6-66.1s-14.1-8-21.7-8c-3.5,0-12.4,1-19.4,5.8s-55.3,57.5-73.8,68.3c-9.1,5.3-36.9,21.7-74.9,29.4-47.1,9.6-107.2,10.1-134.9,9.4-48.9-1.1-82.7-14.2-92.2-18.9-5.4-2.7-22.2-28.8-22.2-28.9-2.6-7.4-2.1,17.5.6,25,4.8,13.4,16.3,20.1,21.7,22.8,9.4,4.7,43.3,17.8,92.2,18.9,27.7.6,87.8.1,134.9-9.4,38-7.7,65.8-24.1,74.9-29.4,18.5-10.8,65.9-68.5,73.8-73.8s16-5.8,19.4-5.8c7.6,0,16.7,3.1,21.7,8s53.1,60.8,71.6,71.6c9.1,5.3,36.9,21.7,74.9,29.4,47.1,9.6,107.2,10.1,134.9,9.4,48.9-1.1,82.7-14.2,92.2-18.9,5.4-2.7,16.9-9.3,21.7-22.8C2608.6,6151.1,2609.7,6120,2607,6127.5Z" transform="translate(-1745.2 -6030.2)"/>
  <path class="a" d="M2619.8,6052.5s-125.4-18.5-189.9-21.1c-82.2-3.3-168.8,6.7-188.8,11.1-6.5,1.4-37.6,7.1-52.2,7.7s-45.7-6.3-52.2-7.7c-20-4.4-106.6-14.4-188.8-11.1-64.4,2.6-189.9,21.1-189.9,21.1-2.2,6.7-12.2,33.3-12.2,33.3l17.2.6c.5,0,4.5,3.9,5.6,16.7s.7,32.5,3.3,40c4.8,13.4,16.3,20.1,21.7,22.8,9.4,4.7,43.3,17.8,92.2,18.9,27.7.6,87.8.1,134.9-9.4,38-7.7,65.8-24.1,74.9-29.4,18.5-10.8,65.9-62.9,73.8-68.3s16-5.8,19.4-5.8c7.6,0,16.7,3.1,21.7,8s53.1,55.2,71.6,66.1c9.1,5.3,36.9,21.7,74.9,29.4,47.1,9.6,107.2,10.1,134.9,9.4,48.9-1.1,82.7-14.2,92.2-18.9,5.4-2.7,16.9-9.3,21.7-22.8,2.6-7.4,2.2-26.6,3.3-40s6.1-17.8,6.7-17.8l16.1.6S2622,6059.2,2619.8,6052.5ZM2134,6081.9c-39.6,93.1-170,93-196.5,95.5-51.5,4.8-119.3,2-139.9-28.9-5.5-8.3-16.9-70.5,28.9-88.8C1920.9,6022,2156.2,6029.7,2134,6081.9Zm449.1,66.6c-20.6,30.8-88.4,33.7-139.9,28.9-26.6-2.5-156.9-2.4-196.5-95.5-22.2-52.2,213.2-60,307.6-22.2C2600,6078,2588.6,6140.3,2583.1,6148.6Z" transform="translate(-1745.2 -6030.2)"/>
  <path class="b" d="M1827.6,6056.4c-17.6,7.1-26.8,20.6-31.1,35.2a50.3,50.3,0,0,1,27.7-26.3c91.7-36.7,316.7-30.4,308.8,17.9l2.1-4.6C2157.4,6026.4,1922,6018.6,1827.6,6056.4Z" transform="translate(-1745.2 -6030.2)"/>
  <path class="b" d="M2553,6056.4c17.6,7.1,26.8,20.6,31.1,35.2a50.3,50.3,0,0,0-27.7-26.3c-91.7-36.7-316.7-30.4-308.8,17.9l-2.1-4.6C2223.3,6026.4,2458.6,6018.6,2553,6056.4Z" transform="translate(-1745.2 -6030.2)"/>
</svg>
