<svg xmlns="http://www.w3.org/2000/svg" width="1453" height="2575" viewBox="0 0 1453 2575">
  <defs>
    <style>
      .a {
        fill: #343838;
        stroke: #000;
        stroke-miterlimit: 10;
      }

      .b {
        fill: #005f6b;
      }
    </style>
  </defs>
  <title>hexbg</title>
  <rect class="a" x="12.5" y="14.5" width="1440" height="2560"/>
  <g>
    <polygon class="b" points="26 7.5 26 7.5 13 0 13 15 26 7.5"/>
    <polygon class="b" points="13 15 26 22.4 26 7.5 13 15 13 15"/>
    <polygon class="b" points="13 30 26 22.4 13 15 13 30"/>
    <polygon class="b" points="13 15 13 15 13 15 13 15"/>
    <polygon class="b" points="13 15 13 0 0 7.5 13 15 13 15"/>
    <polygon class="b" points="13 15 13 15 0 22.4 13 30 13 15"/>
    <polygon class="b" points="0 7.5 0 22.4 13 15 0 7.5"/>
  </g>
</svg>
