<svg xmlns="http://www.w3.org/2000/svg" width="882.1" height="348">
  <defs>
    <style>
      .a { fill: #3f4040; } .b { fill: #020202; }
    </style>
  </defs>
  <g id="bottom1" class="template">
  <g transform="translate(-441,-174)">
    <path d="M17.3 139.2S127.3 9.4 132 7s15.2-1 19.4 2 16 17 18.2 20.7 1.7-12.3 1.7-12.3-28.7-22-40.7-16.6S0 144 0 144z" class="a"/>

  </g>
  <g transform="translate(-441,-174)">
    <path d="M52.7 131.2s77-102.8 81.4-107.5 13-13.2 19-4.7 7 12 9 12 11 1 11-2-3-9.6-3-9.6-19-19.6-33-16C128 5.2 15 134.2 14 137s39-6.3 39-6.3z" class="b"/>

  </g>
  <g transform="translate(-441,-174)">
    <path d="M864.7 139.2S754.7 9.4 750 7s-15.2-1-19.4 2-16 17-18.2 20.7-1.7-12.3-1.7-12.3 28.7-22 40.7-16.6S882 144 882 144z" class="a"/>

  </g>
  <g transform="translate(-441,-174)">
    <path d="M829.3 131.2S752.3 28.4 748 23.7s-12.2-13.2-18.4-4.8-6.8 12-8.4 12-10.4 1-10.4-2 3-10 3-10 19-20 33.5-16c7 1 120.6 130 121 133s-39-6-39-6z" class="b"/>

  </g>
  <g transform="translate(-441,-174)">
    <path d="M874 132.3s-142.2-14-181.5-14c-75.3 0-140 14.7-202.7 36.2-5.8 2-11.3 3.6-16.5 5l-2.6.2-4.2 1.2a115.4 115.4 0 0 1-51 0l-4.3-2-2.6-1c-5.2-2-10.7-3-16.5-5-62-22-127-36-202-36-39 0-181 14-181 14l-9 13s9 16 44 7c123-34 293-2 305 2s65 19 72 23c3 1 11 1 21-1 10 2 19 2 21 1 7-4 60-20 72-23s182-35 305-2c35 10 44-7 44-7z" class="a"/>

  </g>
  <g transform="translate(-441,-174)">
    <path d="M865 142.4c-35.3-4-128-14.5-174-14.5-104.4 0-160.8 29-232.8 43a111 111 0 0 1-37.6 0c-72-15-128.4-44-232.8-44-46 0-138.7 10-174 14L0 144v45.7s19-5.7 28.3-1S53.5 272.4 65 291.4s44.6 50.8 116.6 55.6S335 339 360 308.6c23.5-28.6 51-82.4 54.3-89.4l.2-.4a6.2 6.2 0 0 0 1.3-1.7c5.8-10 14.7-15 23.5-15s17.7 5 23.5 15a6.2 6.2 0 0 0 1.3 2l1 1c4 7 31 61 55 90s106 42 178 37 106-37 117-55 27-98 37-102.4 28 1 28 1v-46zM349 297c-59 66.6-234.4 41.3-260.3-3.8-7.7-13.3-37-56.4-28.5-102.7 2-10.5 14-36.8 40.4-42.5s169-24 252.6 21.2c14.6 8 57 58.7-4.2 127.8zm439.4-3.8c-26 45-201.2 70.4-260.3 3.8-61-69-18-119.8-4-127.7 84-45.3 226-27 253-21.3s39 32 41 43c9 46-21 89.2-28 102.5z" class="b"/>

  </g>
</g>
</svg>
