<svg xmlns="http://www.w3.org/2000/svg" width="891.9" height="639">
  <defs>
    <style>
      .a { fill: #515151; }
    </style>
  </defs>
  <g id="bottom3" class="template">
  <g transform="translate(-445,-319)">
    <path d="M396.6 570.8c-2.5 10.3-15 31.6-41 40.5-83.5 28.4-198 1-224.5-7.3-14-4.5-47-23-58-46-4-9.2-6-16.2-6-21.7-1 6 1 15 7 28.2 10 23 44 41.6 58 46 27 8.3 141 35.8 225 7.4 26-9 39-31 41-41a16 16 0 0 0 0-8zm105 0c2.5 10.3 15 31.6 41 40.5 83.5 28.4 198 1 224.5-7.3 15-4.5 48-23 58-46 4-9.2 6-16.2 7-21.7 1 6-1 15-6 28.2-10 23-43 41.6-58 46-26 8.3-141 35.8-224 7.4-26-9-38-31-41-41a16 16 0 0 1 0-8z" class="a"/>

  </g>
  <g transform="translate(-445,-319)">
    <path d="M2 510.5C6 496.7 94.6 63.5 96 61s6.7-27.7 23.4-42.5 26-18.2 26-18.2 4 12.6 2.3 15S124.4 37.8 121 43s-14.5 39-14.8 47-70.4 417.8-70.4 417.8z"/>

  </g>
  <g transform="translate(-445,-319)">
    <path d="M2.3 510.7S93.7 67.5 95.6 63.5s8-32.3 24-45.3S145 0 145 0l1.5 3.3s-26 19.6-31.4 28-10 25.4-13 34.7-92 444-92 444z" class="a"/>

  </g>
  <g transform="translate(-445,-319)">
    <path d="M890.2 510.5c-3.8-13.8-92.4-447-94-449.5s-6.6-27.7-23.3-42.5S746 .3 746 .3s-3.8 12.6-2.2 15 23.7 22.5 27 27.7 14.5 39 14.8 47 70.6 417.8 70.6 417.8z"/>

  </g>
  <g transform="translate(-445,-319)">
    <path d="M890 510.7S798.6 67.5 796.7 63.5s-8-32.3-24-45.3S747.3 0 747.3 0L746 3.3s26 19.6 31.3 28S788 56.6 790.6 66s92.2 444 92.2 444z" class="a"/>

  </g>
  <g transform="translate(-445,-319)">
    <path d="M390 542.7c11.7 4.4 33.5 6 56 6s44-1.6 56-6c75.6-28 353.8-37.7 389.8-29.3l-1.8-9c-36-8.5-312.4-5-388 23-12 4.4-33.7 6-56 6s-44.3-1.6-56-6c-75.8-28-351.7-33.2-387.7-24.8C1 513.2 0 513.4 0 513.4c36-8.4 314.3 1.2 390 29.3z" class="a"/>

  </g>
  <g transform="translate(-445,-319)">
    <path d="M502 542c-11.8 4.3-33.6 5.8-56 6s-44.2-1.7-56-6c-75.7-28.3-354-38-390-29.5L10.3 537s20 0 22.6 4 50 55.5 52 58c21 19 146 51.3 239 36 4-.7 49-12.4 64-29.3 12-10.6 24-22.8 28-26.4 15-15 43-15.6 59 0 3 3.5 15 15.7 28 26.4 15 17 60 28.6 64 29.3 92 15.3 217-17 239-36 2-2.5 50-53.7 52-58s22.2-4 22.2-4l10-24.4c-36-8.4-314.3 1.2-390 29.4zm-107.5 35.4c-2.5 10-14.8 30.8-40.6 39.4-83 27.7-196 .8-223-7-15-4.5-48-22.6-58-45-14-30.2-4-37.3 6-39.4 70-14.7 205 2 243 10.5 36 8 77 19 71 41zm429.8-12.6c-10 22.3-43 40.5-57.4 45-27 8-140 34.7-223 7-26-8.6-38-29.4-41-39.4-6-22 35-33.4 71-41.5 38-9 173-26 243-11 10 2 19 9 5.5 39z"/>

  </g>

</g>
</svg>
