<svg xmlns="http://www.w3.org/2000/svg" width="882.5" height="510.4">
  <defs>
    <style>
      .a { fill: #2b2b2b; } .b { fill: #2d2d2d; } .c { fill: #383838; } .d { fill: #161616; }
    </style>
  </defs>


  <g id="bottom2" class="template">
  <g transform="translate(-441,-255)">
    <path d="M882 316L770.6 36c-6.8-18-35-34-53.7-36-7-.8-3 18.2 1 18.2s23 8.3 27 15.5 100 287.5 100 287.5z"/>

  </g>
  <g transform="translate(-441,-255)">
    <path d="M713.2 5c10.6 1 34.3 13.6 44.5 26.5s113.5 283 113.5 283l10.5 1.7S805 106.7 768 31.6c-3.5-7.3-13-15-23.6-21.6A73.8 73.8 0 0 0 718 .3c-5.3-1.5-5 4.7-5 4.7z" class="a"/>

  </g>
  <g transform="translate(-441,-255)">
    <path d="M1.5 316L113 36c7-18 35-34 53.8-36 6.8-.8 2.3 18.2-1 18.2s-23.6 8.3-27 15.5S38.2 321.2 38.2 321.2z"/>

  </g>
  <g transform="translate(-441,-255)">
    <path d="M170.4 5C159.8 6 136 18.6 126 31.5s-113.6 283-113.6 283L2 316.3S78.5 106.7 115.4 31.6c3.6-7.3 13-15 23.7-21.6a73.8 73.8 0 0 1 27-9.7c5-1.5 5 4.7 5 4.7z" class="a"/>

  </g>
  <g transform="translate(-441,-255)">
    <path d="M876 309.3c-3.8 0-101.2-19.6-196.2-14.7-75 4-156.5 31-177 37.5s-50 9-67.8 9-39.2-3-55.3-8c-20.5-6-102-33-177-37-95-5-193.2 13-197 13l-5.4 8s170.6-7 229.2 2c84 12 188.7 40 212.5 40 39.3 0 79-10.2 84.5-12.3 10-4 73.6-22.4 132.7-29.4 52.4-7 223 0 223 0z" class="b"/>

  </g>
  <g transform="translate(-441,-255)">
    <path d="M63 353c1.4 19.3-2 97.4 87.5 130 43.4 15.8 131.8 18 176.6-1.6 43-18.6 56-69.5 56-82 1-26.2-13-38.2-13-38.2s23 28 18 54c-6 31.6-36 65-60 74.8-54 22.3-136 13.3-170 2.3-32-10.5-74-40.7-90-76.5-12-26-4-62.8-4-62.8zm756.6.8c-1.4 19.3 4.4 95.4-85 128-44.8 16.3-132.8 18-176 0-40-17-55-65-55.5-77 0-26 7-41.8 7-41.8s-18 26.2-13 52c6 31.8 37 65.2 61 75 54 22.3 136 13.3 170 2.3 32-10.5 74.8-40.7 90-76.5 12-26 2-62 2-62z" class="c"/>

  </g>
  <g transform="translate(-441,-255)">
    <path d="M680 306.3c-75 4-156.6 31-177.2 37.5-18.2 5.8-43.7 8-61.6 8.6s-43.4-2.8-61.6-8.6c-20.5-6.5-102-33.6-177-37.5-95-5-199 9.6-202.7 9.6l9 42s10-2 16 2 11 13 13 17 41 81 64 96c39.2 26 156 64 253 7 19-12 60-78 63.2-84a11.2 11.2 0 0 1 1-2c5.7-5 13-7 20.2-8s14.3 2.3 20 7.3a11.2 11.2 0 0 1 1 1.7c3.5 6.6 44.3 72.8 63.6 84 97 57 213.4 19.5 253-6.6 24-15.4 62.5-93 64.8-96.3s7.7-13.5 13.4-17 16-2.2 16-2.2l9-42c-3.7 0-107.5-14.6-202.5-9.7zM335 481c-38.3 21.5-136 23-183.5 6-13.5-4.7-42-21.4-55-34.8-18-18.8-27-46.8-28.6-50.7-9-22.3-5-42.3-4-45.7 2-6.5 3-24.3 46-34 16-3.8 108-3.8 156 5.5s91 21.7 110 44.3c28 34-16 95.3-41 109.3zm481.4-79.4c-1.4 4-10.6 32-28.7 50.7-13 13.5-41.4 29-55 33.8-47.3 17-145 17-183.4-5-25-14-69.8-75-41-109 19-22 61-35 109-44s139.6-9 156-5c43.4 10 45 28 47 34 1 4 4.3 24-4 46z" class="d"/>

  </g>
</g>
</svg>
