<svg xmlns="http://www.w3.org/2000/svg" width="878" height="256.5">
  <defs>
    <style>
      .a{fill:#333;}.b{fill:#232323;}
    </style>
  </defs>
  <path d="M821.8 96.4c-10 0-43.4 2.8-49.4 5.5s-77.8 122-83 123-11.6-1-13.5-3-11-18-9-26 86-110 86-110l69-32zm-767.3.8c9.8 0 41.8 2.6 47.6 5.3s75 118 80 118.6 11 0 13-2 11-16.3 8-25-83-106-83-106L54.7 56.8z" class="a"/>
  <path d="M876.3 26s-9.5-8.5-32.3-12C781 4 667.3-3.2 622 1.4 507.4 12.8 509.2 39 490.6 49.2s-88.6 4-88.6 4v.6c-6.2-1-11.3-2.2-14.7-4C368.8 39.8 370.5 13.4 256 2 210.6-2.5 97 4.6 34 14.4 11.3 18 1.8 26.7 1.8 26.7c-1.4 3-2.4 45.3-1 46s18 5.8 28.6 32.3c14 35 19.7 85.5 54 120 29 29 150 51.4 235 4.5 8-4.4 10.4-8.8 26.6-26.8 18.7-21 46-86.3 50.5-90.7 1-1 14.7-21.8 35.4-21.8 37-1.6 49 20 50 21 4 4.5 33 70 52 91 16 18 18 22.4 26 26.7 85 47 206 24 235-5 34-35 40-85 54-120 11-27 27-32 29-32s0-43-1-46zM319 207.3c-14.2 11.3-42.5 40.2-126.8 39.5S75.2 197 64.8 149.5c-9.5-43.2-9-57.5-5-73.2 1.4-5 10.3-41 63.7-46.3s173.2-13 220 26.6-8.3 137.7-24.6 150.6zm495.5-57.7c-10.5 47.4-43 96.4-127.5 97s-112.5-28-126.6-39.4c-16.2-13-71.3-111-24.6-150.6s166.7-31.8 220-26.6 62.3 41.4 63.6 46.3c4.3 15.7 4.6 30-5 73.2z" class="b"/>
</svg>
