<svg xmlns="http://www.w3.org/2000/svg" width="972.5" height="258.9">
  <defs>
    <style>
      .a { fill: #050505; } .b { fill: #2b2b2b; }
    </style>
  </defs>
  <path d="M742 101c13.6-2.7 220.5-23 220.5-23L940 39 744.7 58.6l-89 19.3s-59.5 9-63.7 11-134.6 97-134.6 101.4 9.4 24.5 18.2 24 113.7-103.2 123.6-105.8 113-17.2 120-14.6 22.8 7 22.8 7z" class="a"/>
  <path d="M605 57.7c4 8.3 5.6 148.6-50 171.5 41-18.8 65-64 70.3-70.4s9.4-79.8 9-88.6S590.8 28 590.8 28z" class="b"/>
  <path d="M970.2 32.6s-144.2-58-241.2 9c-7 5-12.7 23.5-56.8 17.2-12.7-1.8-22.2-5-29.8-8.8-19-9.5-26-22.7-40.8-28C505.4-13 315 0 269 16a293.2 293.2 0 0 1-30.3 8.2s-21.6 1-23.7 2.6S16.7 61 .5 77.8C-1.3 88 5 218 8 222.8s13.7 3 15-.6 1.6-29 .8-33.3-12.3-78.7-11-82S21 94 32 93.4 218.5 78.3 231 72s43.3 2.4 56.5 16.4S325 168.8 326 176s16.8 72.7 98 81 148-14.2 174.2-46c39.8-48.3 47-91.8 55.8-110 3.8-8 29.5-8.8 37.4-1s43.3 96.4 61.5 108c16 10.5 54 38 67.5 40.4 23 3.8 91.8-2.8 113-40.3s23-109 31.3-116a114.8 114.8 0 0 1 8-9.5zm-350 83.4c-.5 26.7-13.3 68.6-44.2 96-48.7 43-133.5 36.7-166 30-15.8-3.4-27.6-12-29-13-4.3-2.5-45-41-42.4-133.6.2-7.6-12-58 68.6-72.2s186.4 17 197 34c6 9.4 16.8 25 16 59zm280.3 103.7c-38.8 20-94 33.8-133.7-35-36.2-62.7-19.6-111.5-19.6-111.5 10.4-32 140.5-68.8 194-13.3 13.6 14-2 139.5-40.7 159.6z" class="a"/>
</svg>
