<svg xmlns="http://www.w3.org/2000/svg" width="976" height="261.4">
  <defs>
    <style>
      .a { fill: #232323; } .b { fill: #2d2d2d; } .c { fill: #070707; }
    </style>
  </defs>
  <path d="M9 107c3-6 27-17 37-16.6s39-8 49.6-13.4c9-21.7 7.8-58 7.8-58s-76 22.6-95 44.4S9 107 9 107zm936-23.4C916.3 87 889.3 94 851.5 97c-62.5 4.8-134.4 5.2-145.3 10-17.6 7.5-103.7 107.6-107.8 109.5s-13 5-14.3 1.5-17-19-14-26.4S683 91.6 686 90s238-58.4 238-58.4z" class="a"/>
  <path d="M5.8 98c5.3 15.8 51.8 125 55 125.7s12.3-1 13.6-2.3 7.3-15.3 6-20-25.2-54.5-30-61-22-43.5-20.5-49S5 98 5 98z" class="b"/>
  <path d="M974.4 33.2C931 10 730.4-11.8 659 28c-30 16.4-38.3 28.7-62 29.7-27 1-68 2.7-78-7.3C495.7 28 461.5 7.6 387.6 3c-67-4.4-224.5-7.4-295 19.4-8 3-1 51.6-1 51.6s31 18.5 32.6 23.5 34.8 101.5 38.4 107c6.4 10.2 34.3 44.8 110.2 54.7s184.6-12 218.5-70.8 37.8-83.8 50.6-91c7-3.7 30-14.3 56 3.3 9 6 42 77 44 79.6s39 53.4 93 67.8c59 16 165 0 190-41 19-33 27-85 29-94s11-26 22-32c0-6.4-1-46.4-2-47zM445 211.2c-57.2 62.4-236.6 44.4-260.8-9.7s-32.4-106.3-18.7-134c4-8.4 20.8-38 81-39.8s162.3-6 211.6 18.6 59 87-13 164.8zm446 9.2c-39.8 29-153.4 37.2-198.4-10.3s-46.8-122-37-138c25-41 195.4-61 264.8-19 27.3 16.7 11 139-29.4 168.8z" class="c"/>
</svg>
