<svg xmlns="http://www.w3.org/2000/svg" width="1014.6" height="260">
  <defs>
    <style>
      .a { fill: #2b2b2b; } .b { fill: #232323; }
    </style>
  </defs>
  <path d="M559.7 101c15.6-5.3 213.5-11 213.5-11l105-2.8s24.4-5.3 30.7-5 86-7 92-7-12-40.6-12-40.6l-69 4-383 45s-137 99-136 102.4 9.2 23.7 14 26.5 9 2.8 11 1 117-107 132-112.4z" class="a"/>
  <path d="M957.8 31.8c14 11 49.8 86.6 21.2 166.8 11.3-9.5 18-34.6 18-34.6s10.6-105.3 6-114.2-45.2-18-45.2-18zM711.6 24c19.6 7.2 60.8 29.6 60.8 54 0 11.6-9.6 24-12.4 34-.8 3-7.6 47.3-6.5 52.4s-11.7 43.3-13.7 49.5 9 2 10 1 23.4-33 24.7-37 18-80 18-88S787 54 780 48s-68.4-24-68.4-24z" class="b"/>
  <path d="M1014.4 46.7s-2-20.6-39.8-27.5-66.3-4-97.2 7C866 30 846.2 57 844 58.2s-27.4-.6-37.7-.6-18-24.7-51.5-46S527.5 4 519.2 7s-59 13.6-79 15c0 0-26 1.3-37.3.3C372 19.7 44 73 33 80.6 30.2 82.8 2 190 .2 193.4s7.4 34 7.7 36.2 4 3.8 11 1.6 8-26.3 7-30 25-99 25-99l3-4.7c3-4.8 197-13.8 197-13.8s125-10.2 193-16.2 78 36 80 57.4 25 85 31.3 94 92.2 68 162 26c64-38 65-73 75-113s21.5-37 34-39c-5 49 46 116 62 132s53.3 13 61 13c17.3 0 36.2-32 51-61s13-131 13-131zm-231 73.5c-8.7 35.7-10.7 60.4-47.5 98.2s-119 35.4-154-8C572 198 542 102 560 63S663.8.3 748.3 37.8c24 10.6 43.7 46.7 35 82.4zm165 109.2c-41.8 11.7-63.4-61-63.4-61-2.7-9-24.4-68-6.2-102.4S965 19.6 991 53.6s-.6 164-42.5 175.8z"/>
</svg>
