<svg xmlns="http://www.w3.org/2000/svg" width="1014.6" height="260">
  <defs>
    <style>
      .a { fill: #2b2b2b; } .b { fill: #232323; }
    </style>
  </defs>
  <path d="M455 101c-15.8-5.3-213.7-11-213.7-11l-105-2.8s-24.4-5.3-30.7-5-87-7-92.6-7 12-40.8 12-40.8l68.2 4 383 45s137.6 99 136.5 102.6-9.5 23.7-14 26.5-9.3 2.8-11.4 1-117-107-132-112.4z" class="a"/>
  <path d="M56.8 31.8c-14 11-49.8 86.6-21.2 166.8-11.3-9.5-18-34.6-18-34.6S7 58.7 11.6 49.8s45.2-18 45.2-18zM303 24c-19.5 7.2-60.7 29.6-60.7 54 0 11.6 9.6 24 12.4 34 .8 3 7.6 47.3 6.5 52.4S273 207.7 275 214s-9 2.3-10 1.6-23.5-32.3-24.8-36.7-18-80-18-88 5.6-36.7 12.5-43S303 24 303 24z" class="b"/>
  <path d="M12.6 178.2c14.8 29.2 33.7 61 51.2 60.8 7.6 0 45.3 1.4 61-13.7s67-82 61.6-132c12.6 2 24.2-1.2 34 39.2s11.3 75.3 75.2 113c69.7 41.2 155.6-18 162-26.5s28.8-72.7 31.4-94.2 13-63.4 80.7-57.4S763 83.7 763 83.7s193.4 9 196.6 13.8l3.2 4.8S988 197 987.5 201s.6 28 7.7 30 11.2.7 11.5-1.5 9.6-32.7 7.7-36.2S984 82.7 980.8 80.5c-11-7.7-339-61-369-58.3-11.3 1-37.4-.3-37.4-.3-20-1.8-70.7-12.8-79-15.5s-202-16.5-235.6 4.8-41.2 46-51.5 46-35.7 2-37.8.7-22-28.2-33.3-32.2C106.2 15 77.8 12 40 19S.2 46.6.2 46.6s-2.8 101.7 12.4 131.6zM266.4 37.8c84.5-37.4 170-14 187.8 25S442 198.2 432 210.8c-34.8 43.2-116.5 45.6-153.3 8S240 156 231.3 120s11-72 35-82.5zM23.6 53.6c26-34 94-22 112.3 12.4s-3.8 93.4-6.6 102.3c0 0-21.6 72.8-63.5 61S-2.5 87.7 23.6 53.7z"/>
</svg>
