<svg xmlns="http://www.w3.org/2000/svg" width="972.5" height="258.9">
  <defs>
    <style>
      .a { fill: #050505; } .b { fill: #2b2b2b; }
    </style>
  </defs>
  <path d="M230.7 101C217 98.2 10.2 78 10.2 78l22.4-39L228 58.6 317.3 78s59.4 9 63.6 11 134 97 134 101.6-10 24.5-19 24-113-103.2-123-105.8-113-17.2-120-14.6-22 6.8-22 6.8z" class="a"/>
  <path d="M367.8 57.7c-4.2 8.3-5.7 148.6 50 171.5-41.2-18.8-65.2-64-70.4-70.4s-9.4-79.8-9-88.6S382 28 382 28z" class="b"/>
  <path d="M0 82.3A114.8 114.8 0 0 1 8 92c8.3 7 10 78.5 31.3 116s90 44.2 113 40.4c13.8-2.3 51.4-30 67.8-40.3 19-11 54-100 62-108s34-7 38 1c9 19 16 62 56 110 26 32 93 55 174 46s97-73 98-81 25.7-73 39-87 44-22 56-16 188 22 199 22 17.8 9 19 13-10 78-11 82-.3 30 1 33.5 11.8 5.4 15 .7 9-135 7.3-145C956.3 61 760 28.7 758 27s-23.7-3-23.7-3a293.2 293.2 0 0 1-30.2-8c-46-16-236-29-332 6-14 5.2-22 18.5-40 28-7.6 3.8-17 7-30 8.8-44 6.3-50-12.3-57-17.2-97-67-241-9-241-9zM368.5 57c10.7-16.8 116.5-48 197-33.8s68.4 64.6 68.7 72.2c2.6 92.5-38 131-42.5 133.7-1.3 1-13 10-29 13-32.5 7-117.2 13-166-30-31-27-43.6-69-44.2-96-.8-33 10-49 16-59zm-337 3C85 4.5 215 41.2 225.5 73.3c0 0 16.6 48.7-19.7 111.6-39.6 68-95 55-133.7 34S18 74 32 60z" class="a"/>
</svg>
