<svg xmlns="http://www.w3.org/2000/svg" width="976" height="261.4">
  <defs>
    <style>
      .a { fill: #232323; } .b { fill: #2d2d2d; } .c { fill: #070707; }
    </style>
  </defs>
  <path d="M967 107c-3-5.8-27-17-36.8-16.5S891 82.3 880.4 77c-9-21.7-7.8-58-7.8-58s76 22.6 95 44.4-.7 43.5-.7 43.5zM31 83.6C59.7 87 86.7 94 124.5 97c62.5 4.8 134.4 5.2 145.3 10 17.6 7.5 103.7 107.6 107.8 109.5s13 5 14.3 1.5 17-19 14-26.4S293.4 91.6 290 90 52 31.6 52 31.6z" class="a"/>
  <path d="M970 98c-5.2 15.8-51.7 125-55 125.7s-12.2-1-13.5-2.3-7.3-15.3-6-20 25.2-54.5 30-61 22-43.5 20.5-49 24 6.7 24 6.7z" class="b"/>
  <path d="M0 80.3c11 6 20 23.2 21.3 31.3S31 173 50.5 206C75 247.8 181 264 240.3 248c54-14.5 90.6-65.2 93-68s35.2-73.6 44-79.5c26.2-17.7 49.7-7 56.7-3.2 13 7 16.7 32 50.6 91S627 269 703.2 259s103.8-44.5 110.2-54.6c3.5-5.6 37-102.2 38.4-107s32.7-23.6 32.7-23.6 7-48.5-1-51.6C813-4.5 655.5-1.6 588.5 2.7c-74 4.8-108.3 25-131.3 47.5-10 10-51 8.3-78.2 7.3-23.7-1-32-13.3-61.8-29.8-71.4-39.5-272-18-315.5 5.3-1 .7-2.2 40.7-1.6 47.3zM517.8 46C567 21.6 669 26 729.2 27.6s77 31.4 81 39.8c14 27.8 5 81-18.6 134s-203.6 72-260.8 9.6c-71-77.6-62.3-140.2-13-164.8zM55.5 52c69.5-41.7 240-22.6 264.8 19 9.8 16.3 8 91.4-37 139S124.7 249 85 220 28 68.2 55.5 52z" class="c"/>
</svg>
