<svg xmlns="http://www.w3.org/2000/svg" width="884.3" height="431.6">
  <defs>
    <style>
      .a { fill: #2d2d2d; }
    </style>
  </defs>
  <g id="top1" class="template">
    <g transform="translate(-442,-216)">
  <path d="M873.8 89.4s-89 243.7-91.3 249.3-14.8 74-12.7 80.2-5.6 12-5.6 12-9-3-9-7-5.7-16-5.7-20 14-98 19.7-111S859 84 859 84z"/>
</g>
<g transform="translate(-442,-216)">
  <path d="M766.4 420.5c-6.3 1.4-8.4-9.3-9-12.8s8.3-46.4 10.5-64c8-27.4 99-256.2 99-256.2l6 2-88 240c-4 9.2-16 76.8-16 80.3s-4 10.7-4 10.7z" class="a"/>

</g>
<g transform="translate(-442,-216)">
  <path d="M14.5 89.4s89 243.7 91.3 249.3 14.8 74 12.7 80.2 5.5 12 5.5 12 9.6-3 9.6-7 5.6-16 5.6-20-14-98-20-111S29.6 84 29.6 84z"/>

</g>
<g transform="translate(-442,-216)">
  <path d="M122 420.5c6.3 1.4 8.4-9.3 9-12.8s-8.3-46.4-10.5-64c-8.4-27.4-100-256.2-100-256.2l-6 2 88 240c3.3 9.2 15.5 76.8 15.8 80.3s3.7 10.7 3.7 10.7zM56.4 69.7c4-4.7 22.2-30.5 54.8-40.6 48-14 119.7-16 159-13 58.8 4 111.3 23 114.6 46 17-4 0-32 0-32S140.2-46 50 61c-19 22.4 6.4 9 6.4 9zm775.4 0c-4-4.7-22.2-30.5-54.8-40.6-48-14-119.7-16-159-13-58.7 4-111.3 23-114.6 46-17-4 0-32 0-32S748-46 838.2 61c19 22.4-6.4 9-6.4 9z" class="a"/>

</g>
<g transform="translate(-442,-216)">
  <path d="M871.3 59.3l-47.8-3a87.8 87.8 0 0 1 11 28.7c5.6 28.7-1.3 70.8-4.2 77-1.8 4-11.4 32.3-38 44s-79.2 11.6-99.8 11.5c-45.7 0-91-9.6-121.4-27.4-33-19-71-81-69-121 1-8 5-15 10-22-29 1-53 2-69 4-15-2-38-3-65-4 6 6 9 14 10 22 3 40-36 103-69 122-30 18-76 27-121 27-20.5 0-72 1-100-11s-40-36-42-39c-3-6.2-11-52.2-5.4-81 2-11.2 4.4-21 9-28.6l-45 2.6L0 72l7 18c10-2.8 18.3-5.8 18.6-2.3s-3 79.8 20.2 107.7 67.8 42.2 140 44.3c88.8 2.5 117.7-17.4 131.4-24.6s47.5-31 68-67 28.8-51 35.2-61h.6c6.5-8 14-12 21-12s14.7 4 21.2 12l.6 1c6.4 10 15.5 25 35.3 60.8s55 60.4 68 67.6 43 27 132 24.7c73-2 117-16.7 140-44.2s20-104.3 20-108 9-.4 19 2.4l7-18z" class="a"/>

</g>
<g transform="translate(-442,-216)">
  <path d="M878 24.5c-24.7-5.6-263.6-49-387.2-5-2 .8-4.2 1.5-6.5 2l-2 .2a201.5 201.5 0 0 1-80.2 0l-1-.2c-2-.6-4-1.2-6-2-123-44-362-.6-387 5 3 10.3-7 45-6 47.2s21 0 21 0 5 8.4 5 12.7 0 84.4 29 108.8c55.5 47 225.3 54 288-8.2 31-30.7 60.7-82.7 70-100 1.6-2 2.7-3.6 3.4-5a30 30 0 0 1 52 0l3.5 5c9.3 17.3 39 69.4 70 100 62.7 62.2 232.5 55 288 8.2 29-24.5 29-104.6 29-108.8s5-12.7 5-12.7 20 2 20.5 0-9.2-37-6.2-47.2zM315.4 189.7C285 207.5 239.8 217 194 217c-20.4 0-71.7.7-99.7-11.5s-36.2-40-38-43.8c-3-6.3-9.8-48.4-4.2-77s25-47 32-50.7C130 6.2 253 0 326 18c18.8 4 57.3 20.2 59 49 3 40.2-35.7 102.5-69 122zm515-28c-1.7 4-11.3 32.2-38 43.8s-79 11.7-99.7 11.6c-45.7 0-91-9-121.4-27-33.3-19-72-82-69-122 1.8-28 40.3-44 59-49 73-18 196.3-12 242.4 15 6.3 4 25.3 21 31 51s-1.2 71-4 77z"/>
</g>


</g>
</svg>
