<svg xmlns="http://www.w3.org/2000/svg" width="880" height="547.3">
  <defs>
    <style>
      .a { fill: #2d2e30; } .b { fill: #222; } .c { fill: #3d3d3d; }
    </style>
  </defs>
  <g id="top1" class="template">
    <g transform="translate(-439,-274)">
      <path d="M867.8 89.6L840 84s-87.6 315-89 322-11 114.7-11 114.7 3 19.4 5 22.2 11.6 4 11.6 4 8.6-127 15-144c3.4-8 96.2-314 96.2-314z"/>
      </g>
    <g transform="translate(-439,-274)">
      <path d="M774 407.4c-1.3 4.8-17 137-17 137s-7.7 1.6-9.7 0S760.6 403 760.6 403 856.8 91 857 87s15.2 3 15.2 3-96 308-98.3 317.7z" class="a"/>
      </g>
    <g transform="translate(-439,-274)">
      <path d="M0 65.2l8 24.4L30 84 15 61.7 0 65.2" class="b"/>
    </g>
    <g transform="translate(-439,-274)">
      <path d="M12.2 89.6L40 84s87.7 314.8 89 322 11 114.7 11 114.7-3 19.4-5 22.2-11.6 4-11.6 4-8.6-127-15-144C105 395 12 89 12 89z"/>
    </g>
    <g transform="translate(-439,-274)">
      <path d="M856.7 87.5s-16.5 46-28.7 74.6-113.3 23-140 25-90.3-13-96.7-14-63.8-40-63.8-40l-47.3-67-2.2-2c-1.6-21.2-3.7-40-3.7-40l-34 19-34-20s-2 19-3.6 40l-2.3 1.5-47.4 67s-57.3 39.4-63.7 40S219 188 192.5 186s-127.7 4.3-140-24.4-28.5-74-28.5-74c-.7 13-2.8 68.4 12.8 82.3s64 43 160.7 37c66-4 118.4-21.5 159.3-51 28.3-20.3 52-82 83.6-81.8s53.7 60.8 83.6 82c41 29 93.3 47 159.3 50.8 96.7 6 145-23.2 160.7-37s13.3-69.5 12.7-82.4z" class="a"/>

    </g>
    <g transform="translate(-439,-274)">
      <path d="M106.2 407.4c1.2 4.8 17 137 17 137s7.6 1.6 9.6 0S119.5 403 119.5 403 23.3 91 23 87 8 90 8 90s95.8 308 98.2 317.7z" class="a"/>

    </g>
    <g transform="translate(-439,-274)">
      <path d="M880 65.2l-8 24.4-22-5.5 15-22 15 4" class="b"/>

    </g>
    <g transform="translate(-439,-274)">
      <path d="M183 17.2c122.4-11.3 166.6 7 185.8 20.4s16 21.8 12.4 32.6 8.4-32.3 8.4-32.3l-43.8-23L219.2 4l-86 8.6L64 39.2 38.6 71v48.8l25 43.8A116.5 116.5 0 0 1 53 130.8c-3-17.4-2.3-40-.6-49.7C56.4 59 74 28 183 18zm514 0C574.6 6 530.4 24.2 511.2 37.6s-16 21.8-12.4 32.6-8.4-32.3-8.4-32.3l43.8-23L660.7 4l86 8.6L816 39.3 841 71v48.8l-25 43.8a116.5 116.5 0 0 0 11-32.8c3-17.4 2.2-40 .5-49.7-4-22-21.5-53-130.5-63z" class="c"/>

    </g>
    <g transform="translate(-439,-274)">
      <path d="M870 27.2a121.4 121.4 0 0 1-42.7-1.4C821 24.4 814 19.3 784 12.2c-16.4-4-134.6-17.2-202.4-10-19.8 2-40.6 2.5-70.3 12-7.2 2.4-40.6 12-72.6 12s-62.7-9.6-70-12c-29.6-9.6-50.4-10-70.2-12-67.8-7.2-186 6-202.3 10-30 7.2-37 12.3-43.4 13.6A121.4 121.4 0 0 1 10 27.2l-10 38a20.5 20.5 0 0 1 10 0c5 1.4 13 11.5 13 21.5s.3 44.3 1.8 50c2.5 9.4 19 35.4 50 45.8 16.3 5.5 58 15.2 101.8 14.7 48.6-.5 100.4-12.3 134-28.7 58.7-28.5 87-81 101.3-98.3 22-24.2 37-26.2 56 0 14 17.2 42 69.8 101 98.3 37 18 101 29.3 153 28.7 38-.5 68-9.8 83-14.7 31-10.4 47-36.4 50-46 1-5.5 1-39.7 1-49.8s8-20 13-21.5a20.5 20.5 0 0 1 10 0zM337.2 138.8c-21.8 18.7-52.4 31.6-67 34.4-56 11-169.7 18.6-207.4-18-20.8-20-18-31-18.7-46.5 0-10-4-46.6 30-66C88 35 114 23.3 140 18 209 4 309 3 365 29c26.8 12.5 22 67-27.8 109.8zm497-30c-.6 15.3 2 26.4-18.8 46.5-37.8 36.5-151.4 28.8-207.3 18-14-3-45-15.8-67-34.5-50-43-54-97.3-28-109.8C569 2.8 669 3.8 739 18c26.5 5.3 52.4 17 65.7 24.5 34 19.5 30.5 56 30 66z"/>

    </g>
    <g transform="translate(-439,-274)">

    </g>




  </g>
</svg>
