<svg xmlns="http://www.w3.org/2000/svg" width="887.6" height="624.6">
  <defs>
    <style>
      .a { stroke: #000; stroke-miterlimit: 10; } .b { fill: #2b2b2b; } .c { fill: #262626; }
    </style>
  </defs>
  <g id="top3" class="template">

    <g transform="translate(-444,-312)">
      <path d="M10.8 73.8l34-2 70 377.6s9.3 51.4 9.3 76.2 3 66 2 72.5-9 26-10 26h-11s-4-98-4-105S11 74 11 74z" class="a"/>

    </g>
    <g transform="translate(-444,-312)">
      <path d="M103.3 623.7l10.8.8-6-108C108 507.8 23 74 23 74H11s88 440.6 88 444c1 9.7 4.6 106 4.6 106z" class="b"/>

    </g>
    <g transform="translate(-444,-312)">
      <path d="M882 73.8l-34-2-70 377.6s-9.4 51.4-9.4 76.2-3 66-1 72.5 9.2 26 10.3 26h11s4-97 4-104 89-445 89-445z" class="a"/>

    </g>
    <g transform="translate(-444,-312)">
      <path d="M789.3 623.7l-10.8.8 6-108c.7-8.8 85.8-442.7 85.8-442.7h11.5s-88 440.6-88 444c-.8 9.7-4.5 106-4.5 106z" class="b"/>

    </g>
    <g transform="translate(-444,-312)">
      <path d="M861.6 74.6l23.3-1 2-17.6-25-2-1 21m-835-.3l-24-1L0 56l25-2.5 1 21" class="c"/>

    </g>
    <g transform="translate(-444,-312)">
      <path d="M861.8 97.3c-4.8 13.4-17.4 32.3-22.8 35-9.4 4.7-43.3 17.8-92.2 19-27.7.5-87.8 0-135-9.5-38-7.7-65.7-24-74.8-29.4-18.6-10.8-65.8-60.3-71.6-66s-14-8-21.7-8c-3.5 0-12.4 1-19.4 5.7s-55.3 58-73.8 69c-9 6-37 22-75 30-47 10-107 10-134.8 10-49-1-82.7-14-92.2-19-5.5-3-22.2-29-22.2-29-2.6-7-2 18 .6 25 4 14 16 20 21 23 9 5 43 18 92 19 27 1 88 0 135-9 38-7 65-24 75-29 18-11 66-68.2 74-74s16-6 19-6c7 0 16 3 21 8s53 61 71 72c9 5.4 37 21.8 75 29.5 47 9.3 107 10 135 9 48-1 82-14 92-19 5-2.7 17-9.3 21-23 2.6-7.4 3.7-38.5 1-31z" class="b"/>

    </g>
    <g transform="translate(-444,-312)">
      <path d="M874.6 22.3s-125.4-18.5-190-21C602.6-2 516 8 496 12.3c-6.7 1.4-37.8 7-52.4 7.7s-45.7-6.3-52.2-7.7C371.4 8 285-2 202.7 1.3c-64.4 2.5-190 21-190 21-2 6.7-12 33.3-12 33.3l17 .6c.6 0 4.6 4 5.7 16.7s.7 32 3.3 40c4.8 13 16.3 20 21.7 22 9.4 4 43.3 18 92.2 19 27.7 0 87.8 0 135-10 38-8 65.7-24 74.8-30 18.5-11 66-63 73.8-69s16-6 19.4-6c7.6 0 16.7 3 21.7 8s53 55 71.6 66c9 5 36 21.2 74 29 47 10 107 10 135 9.5 49-1 82-14 92-19 5-2.5 17-9 22-22.6 2-7.5 2-27 3-40s6-18 6-18l16 .7s-10-26.5-12-33zM388.8 51.7c-39.6 93-170 93-196.5 95.5-51.5 4.8-119.3 2-140-29C47 110 35.6 48 81.3 29.6 175.8-8.2 411-.4 389 51.6zm449 66.6c-20.5 30.8-88.3 33.7-139.8 29-26.6-2.6-157-2.5-196.5-95.6C479.3-.5 714.7-8.3 809 29.5c45.8 18.3 34.4 80.6 29 89z" class="a"/>

    </g>
    <g transform="translate(-444,-312)">
      <path d="M82.4 26.2c-17.6 7-26.8 20.6-31 35.2A50.3 50.3 0 0 1 79 35C170.7-1.5 395.7 4.8 387.8 53l2-4.6c22.4-52.2-213-60-307.4-22.2zm725.4 0c17.6 7 26.8 20.6 31 35.2A50.3 50.3 0 0 0 811.3 35c-91.8-36.5-316.8-30.2-309 18l-2-4.6c-22.2-52.2 213-60 307.5-22.2z" class="b"/>

    </g>

</g>

</svg>
